<svg width="16" height="16" viewBox="0 0 16 16" fill="none" xmlns="http://www.w3.org/2000/svg">
  <rect width="16" height="16" rx="2" fill="#FE5000"/>
  <path d="M5.28641 10.9208C4.6294 10.9208 4.28775 10.684 4.28775 10.2102C4.28775 9.65746 4.68196 9.42058 5.52294 9.42058H6.46904C6.5216 9.42058 6.54788 9.4469 6.54788 9.49954V9.94698C6.54788 10.605 6.10111 10.9208 5.28641 10.9208ZM7.70423 11.8947C7.78307 11.8947 7.83563 11.8421 7.83563 11.7631V7.99927C7.83563 6.57797 7.17862 5.9726 5.41782 5.9726C4.47171 5.9726 3.84098 6.20948 3.36793 6.52532C3.31537 6.55165 3.31537 6.63061 3.34165 6.68325L3.78842 7.47286C3.8147 7.5255 3.89354 7.55182 3.9461 7.49918C4.20891 7.28862 4.6294 7.10437 5.26013 7.10437C6.23252 7.10437 6.54788 7.3939 6.54788 8.05191V8.31512C6.54788 8.36776 6.5216 8.39408 6.46904 8.39408H5.3127C3.89354 8.39408 3 8.97313 3 10.2365C3 11.4473 3.89354 12 4.94477 12C5.75947 12 6.31136 11.7368 6.57416 11.3156V11.7368C6.57416 11.8157 6.62673 11.8684 6.70557 11.8684H7.70423V11.8947Z" fill="white"/>
  <path d="M11.8559 10.7255L11.8559 6.48001C11.8559 6.40187 11.8023 6.34978 11.7219 6.34978L10.7843 6.34978C10.704 6.34978 10.6504 6.40187 10.6504 6.48001L10.6504 10.7255C10.6504 10.8036 10.704 10.8557 10.7843 10.8557L11.7487 10.8557C11.8023 10.8557 11.8559 10.8036 11.8559 10.7255Z" fill="white"/>
  <path d="M9.13023 9.20548H13.3757C13.4538 9.20548 13.5059 9.1519 13.5059 9.07154V8.13394C13.5059 8.05358 13.4538 8 13.3757 8H9.13023C9.05209 8 9 8.05358 9 8.13394V9.09832C9 9.1519 9.05209 9.20548 9.13023 9.20548Z" fill="white"/>
  <path d="M3.53013 5.20548H7.77561C7.85374 5.20548 7.90583 5.1519 7.90583 5.07154V4.13394C7.90583 4.05358 7.85374 4 7.77561 4H3.53013C3.45199 4 3.3999 4.05358 3.3999 4.13394V5.09832C3.3999 5.1519 3.45199 5.20548 3.53013 5.20548Z" fill="#84BD00"/>
</svg>